<mxfile host="app.diagrams.net" modified="2023-04-08T03:21:41.377Z" agent="Mozilla/5.0 (Windows NT 10.0; Win64; x64) AppleWebKit/537.36 (KHTML, like Gecko) Chrome/111.0.0.0 Safari/537.36" etag="XOrSv2U9z5fDn66gvTTh" version="21.1.5" type="github">
  <diagram name="페이지-1" id="qP_2K5hU-7pOPHYzr93d">
    <mxGraphModel dx="794" dy="470" grid="1" gridSize="10" guides="1" tooltips="1" connect="1" arrows="1" fold="1" page="1" pageScale="1" pageWidth="827" pageHeight="1169" math="0" shadow="0">
      <root>
        <mxCell id="0" />
        <mxCell id="1" parent="0" />
        <mxCell id="8TaF59Ofza1BFUwR8GQp-1" value="일반회원" style="shape=umlActor;verticalLabelPosition=bottom;verticalAlign=top;html=1;outlineConnect=0;" vertex="1" parent="1">
          <mxGeometry x="96" y="40" width="20" height="50" as="geometry" />
        </mxCell>
        <mxCell id="8TaF59Ofza1BFUwR8GQp-2" value="프리미엄회원" style="shape=umlActor;verticalLabelPosition=bottom;verticalAlign=top;html=1;outlineConnect=0;" vertex="1" parent="1">
          <mxGeometry x="40" y="150" width="20" height="50" as="geometry" />
        </mxCell>
        <mxCell id="8TaF59Ofza1BFUwR8GQp-4" value="관리자모드" style="shape=umlActor;verticalLabelPosition=bottom;verticalAlign=top;html=1;outlineConnect=0;" vertex="1" parent="1">
          <mxGeometry x="30" y="390" width="20" height="50" as="geometry" />
        </mxCell>
        <mxCell id="8TaF59Ofza1BFUwR8GQp-6" value="gif촬영기능" style="ellipse;whiteSpace=wrap;html=1;" vertex="1" parent="1">
          <mxGeometry x="258" y="80" width="80" height="30" as="geometry" />
        </mxCell>
        <mxCell id="8TaF59Ofza1BFUwR8GQp-7" value="gif로드 기능" style="ellipse;whiteSpace=wrap;html=1;" vertex="1" parent="1">
          <mxGeometry x="258" y="20" width="80" height="30" as="geometry" />
        </mxCell>
        <mxCell id="8TaF59Ofza1BFUwR8GQp-8" value="타이머 설정" style="ellipse;whiteSpace=wrap;html=1;" vertex="1" parent="1">
          <mxGeometry x="490" y="76" width="80" height="30" as="geometry" />
        </mxCell>
        <mxCell id="8TaF59Ofza1BFUwR8GQp-9" value="&amp;lt;Extend&amp;gt;" style="endArrow=classic;html=1;rounded=0;entryX=1;entryY=0.5;entryDx=0;entryDy=0;exitX=0;exitY=0.5;exitDx=0;exitDy=0;dashed=1;" edge="1" parent="1" source="8TaF59Ofza1BFUwR8GQp-8" target="8TaF59Ofza1BFUwR8GQp-6">
          <mxGeometry width="50" height="50" relative="1" as="geometry">
            <mxPoint x="360" y="390" as="sourcePoint" />
            <mxPoint x="410" y="340" as="targetPoint" />
          </mxGeometry>
        </mxCell>
        <mxCell id="8TaF59Ofza1BFUwR8GQp-10" value="" style="endArrow=none;html=1;rounded=0;entryX=0;entryY=0.5;entryDx=0;entryDy=0;exitX=0.5;exitY=0.5;exitDx=0;exitDy=0;exitPerimeter=0;" edge="1" parent="1" source="8TaF59Ofza1BFUwR8GQp-1" target="8TaF59Ofza1BFUwR8GQp-6">
          <mxGeometry width="50" height="50" relative="1" as="geometry">
            <mxPoint x="360" y="260" as="sourcePoint" />
            <mxPoint x="410" y="210" as="targetPoint" />
          </mxGeometry>
        </mxCell>
        <mxCell id="8TaF59Ofza1BFUwR8GQp-11" value="" style="endArrow=none;html=1;rounded=0;entryX=0;entryY=0.5;entryDx=0;entryDy=0;exitX=0.5;exitY=0.5;exitDx=0;exitDy=0;exitPerimeter=0;" edge="1" parent="1" source="8TaF59Ofza1BFUwR8GQp-1" target="8TaF59Ofza1BFUwR8GQp-7">
          <mxGeometry width="50" height="50" relative="1" as="geometry">
            <mxPoint x="60" y="75" as="sourcePoint" />
            <mxPoint x="280" y="55" as="targetPoint" />
          </mxGeometry>
        </mxCell>
        <mxCell id="8TaF59Ofza1BFUwR8GQp-24" value="" style="edgeStyle=orthogonalEdgeStyle;rounded=0;orthogonalLoop=1;jettySize=auto;html=1;" edge="1" parent="1" source="8TaF59Ofza1BFUwR8GQp-12" target="8TaF59Ofza1BFUwR8GQp-14">
          <mxGeometry relative="1" as="geometry" />
        </mxCell>
        <mxCell id="8TaF59Ofza1BFUwR8GQp-12" value="editing" style="ellipse;whiteSpace=wrap;html=1;" vertex="1" parent="1">
          <mxGeometry x="270" y="198" width="80" height="30" as="geometry" />
        </mxCell>
        <mxCell id="8TaF59Ofza1BFUwR8GQp-13" value="원하는 프레임 선택" style="ellipse;whiteSpace=wrap;html=1;" vertex="1" parent="1">
          <mxGeometry x="412" y="238" width="110" height="30" as="geometry" />
        </mxCell>
        <mxCell id="8TaF59Ofza1BFUwR8GQp-14" value="추가 보정" style="ellipse;whiteSpace=wrap;html=1;" vertex="1" parent="1">
          <mxGeometry x="272" y="330" width="76" height="30" as="geometry" />
        </mxCell>
        <mxCell id="8TaF59Ofza1BFUwR8GQp-15" value="이미지 저장" style="ellipse;whiteSpace=wrap;html=1;" vertex="1" parent="1">
          <mxGeometry x="440" y="140" width="76" height="30" as="geometry" />
        </mxCell>
        <mxCell id="8TaF59Ofza1BFUwR8GQp-16" value="" style="endArrow=none;html=1;rounded=0;exitX=0.5;exitY=0.5;exitDx=0;exitDy=0;exitPerimeter=0;entryX=0;entryY=0.5;entryDx=0;entryDy=0;" edge="1" parent="1" source="8TaF59Ofza1BFUwR8GQp-1" target="8TaF59Ofza1BFUwR8GQp-12">
          <mxGeometry width="50" height="50" relative="1" as="geometry">
            <mxPoint x="360" y="240" as="sourcePoint" />
            <mxPoint x="410" y="190" as="targetPoint" />
          </mxGeometry>
        </mxCell>
        <mxCell id="8TaF59Ofza1BFUwR8GQp-17" value="갤러리에서 모션포토 선택" style="ellipse;whiteSpace=wrap;html=1;" vertex="1" parent="1">
          <mxGeometry x="488" y="20" width="110" height="30" as="geometry" />
        </mxCell>
        <mxCell id="8TaF59Ofza1BFUwR8GQp-18" value="&amp;lt;Extend&amp;gt;" style="endArrow=classic;html=1;rounded=0;entryX=1;entryY=0.5;entryDx=0;entryDy=0;exitX=0;exitY=0.5;exitDx=0;exitDy=0;dashed=1;" edge="1" parent="1" source="8TaF59Ofza1BFUwR8GQp-17" target="8TaF59Ofza1BFUwR8GQp-7">
          <mxGeometry width="50" height="50" relative="1" as="geometry">
            <mxPoint x="488" y="-45" as="sourcePoint" />
            <mxPoint x="348" y="-45" as="targetPoint" />
          </mxGeometry>
        </mxCell>
        <mxCell id="8TaF59Ofza1BFUwR8GQp-19" value="선택 된 프레임들을 표시" style="ellipse;whiteSpace=wrap;html=1;" vertex="1" parent="1">
          <mxGeometry x="610" y="238" width="110" height="30" as="geometry" />
        </mxCell>
        <mxCell id="8TaF59Ofza1BFUwR8GQp-20" value="&amp;lt;Extend&amp;gt;" style="endArrow=classic;html=1;rounded=0;entryX=1;entryY=0.5;entryDx=0;entryDy=0;exitX=0;exitY=0.5;exitDx=0;exitDy=0;dashed=1;" edge="1" parent="1" source="8TaF59Ofza1BFUwR8GQp-19" target="8TaF59Ofza1BFUwR8GQp-13">
          <mxGeometry width="50" height="50" relative="1" as="geometry">
            <mxPoint x="510" y="203" as="sourcePoint" />
            <mxPoint x="360" y="203" as="targetPoint" />
          </mxGeometry>
        </mxCell>
        <mxCell id="8TaF59Ofza1BFUwR8GQp-21" value="&amp;lt;Extend&amp;gt;" style="endArrow=classic;html=1;rounded=0;entryX=1;entryY=0.5;entryDx=0;entryDy=0;exitX=0;exitY=0.5;exitDx=0;exitDy=0;dashed=1;" edge="1" parent="1" source="8TaF59Ofza1BFUwR8GQp-15" target="8TaF59Ofza1BFUwR8GQp-6">
          <mxGeometry width="50" height="50" relative="1" as="geometry">
            <mxPoint x="500" y="55" as="sourcePoint" />
            <mxPoint x="360" y="55" as="targetPoint" />
          </mxGeometry>
        </mxCell>
        <mxCell id="8TaF59Ofza1BFUwR8GQp-22" value="&amp;lt;Extend&amp;gt;" style="endArrow=classic;html=1;rounded=0;entryX=1;entryY=0.5;entryDx=0;entryDy=0;exitX=0;exitY=0.5;exitDx=0;exitDy=0;dashed=1;" edge="1" parent="1" source="8TaF59Ofza1BFUwR8GQp-15" target="8TaF59Ofza1BFUwR8GQp-12">
          <mxGeometry width="50" height="50" relative="1" as="geometry">
            <mxPoint x="510" y="65" as="sourcePoint" />
            <mxPoint x="370" y="65" as="targetPoint" />
          </mxGeometry>
        </mxCell>
      </root>
    </mxGraphModel>
  </diagram>
</mxfile>
